<svg width="600" height="600" viewBox="0 0 600 600" fill="none" xmlns="http://www.w3.org/2000/svg">
<path d="M300 600C134.315 600 0 465.685 0 300C0 134.315 134.315 0 300 0C465.685 0 600 134.315 600 300C600 465.685 465.685 600 300 600Z" fill="#F3E4E1"/>
<rect x="260" y="160" width="80" height="140" fill="#E5674E"/>
<path d="M122.487 424.024C155.245 335.476 188.492 247.112 221.702 158.711C226.522 145.962 235.67 139.752 250.43 140.008C283.64 140.592 316.888 140.482 350.096 140.044C364.782 139.861 373.404 146.327 378.26 159.332C411.17 247.148 444.378 334.818 477.098 422.708C485.608 445.538 475.066 459.42 449.838 459.712C420.356 460.078 390.912 459.786 361.43 459.786C352.582 459.786 343.508 460.188 338.802 450.616C334.396 441.776 340.344 435.64 344.9 429.174C362.22 404.662 372.688 377.776 375.438 348.042C376.642 334.782 370.768 328.536 357.402 328.498C338.612 328.426 319.786 328.498 300.998 328.498C300.998 328.462 300.998 328.426 300.998 328.426C282.812 328.426 264.626 328.17 246.478 328.498C226.936 328.828 222.04 334.454 224.902 353.522C229.12 381.612 239.738 407.292 256.23 430.818C268.052 447.73 262.404 459.31 241.922 459.602C210.594 460.114 179.23 460.188 147.903 459.494C125.236 458.982 114.844 444.662 122.487 424.024ZM278.294 244.884C287.254 255.258 294.408 265.852 297.61 279.44C300.584 292.116 308.868 292.408 318.092 283.86C334.132 268.92 336.014 241.304 321.18 222.272C312.858 211.606 305.102 201.486 302.316 187.569C300.056 176.427 291.134 175.368 282.812 183.551C273.662 192.464 268.616 203.312 268.806 217.194C268.014 226.948 271.328 236.884 278.294 244.884Z" fill="#2F2926"/>
</svg>
